<svg width="59" height="59" viewBox="0 0 59 59" fill="none" xmlns="http://www.w3.org/2000/svg">
<rect width="59" height="59" rx="19" fill="#5296FB"/>
<path d="M39.0052 17.0328C37.6756 17.0833 37.3895 17.1169 35.9757 17.4115C34.9995 17.6135 33.3921 18.0847 33.2406 18.2194C33.1985 18.253 33.0975 18.2867 33.0218 18.2867C32.9376 18.2867 32.7693 18.3372 32.6347 18.4045C32.2223 18.6149 31.2714 19.0441 31.2209 19.0441C31.204 19.0441 30.9852 19.1619 30.7496 19.305C30.2699 19.6079 29.7566 19.6584 29.5125 19.4312C29.4284 19.3555 29.2937 19.2966 29.2264 19.2966C29.1507 19.2966 29.0497 19.2376 28.9908 19.1703C28.9319 19.103 28.8225 19.0441 28.7383 19.0441C28.6541 19.0441 28.5447 18.9852 28.4858 18.9179C28.4269 18.8505 28.3344 18.7916 28.2754 18.7916C28.2081 18.7916 28.0482 18.7327 27.9052 18.6654C27.7621 18.5981 27.5265 18.4803 27.3834 18.4129C27.2403 18.3456 27.0636 18.2867 26.9795 18.2867C26.9037 18.2867 26.8027 18.253 26.7606 18.2194C26.6765 18.1436 25.9107 17.8912 25.1196 17.6808C23.2261 17.1674 22.6455 17.0917 20.1965 17.0496C17.8991 17.0075 16.4937 17.1169 15.6101 17.4199C15.0042 17.6303 14.9368 17.7649 14.9368 18.8085C14.9368 19.6753 14.9284 19.7089 14.718 19.8772C14.5918 19.9782 14.3814 20.054 14.2468 20.054C14.1121 20.054 13.8176 20.1297 13.5988 20.2223C13.2958 20.3569 13.178 20.4663 13.1022 20.6767C12.9592 21.0722 12.9676 38.8879 13.1191 39.3676L13.2201 39.7042L13.8176 39.7295C14.2468 39.7463 14.4992 39.7126 14.6759 39.6201C14.8358 39.5443 15.1556 39.4938 15.5427 39.4938C15.8794 39.4938 16.4769 39.4349 16.8724 39.3676C17.6971 39.2245 21.1643 39.1993 22.1321 39.3339C22.4603 39.376 23.2514 39.4349 23.8994 39.4602C24.682 39.5022 25.1364 39.5527 25.2459 39.6285C25.3384 39.6958 25.6161 39.7463 25.877 39.7463C26.1631 39.7463 26.4156 39.7968 26.5166 39.8725C26.6008 39.9398 26.7943 39.9988 26.9458 39.9988C27.3666 39.9988 27.7873 40.2933 27.8463 40.6299C27.9388 41.118 28.1997 41.1853 30.0427 41.2358C31.5996 41.2779 31.6501 41.2779 31.8773 41.0928C32.0204 40.975 32.1045 40.8319 32.1045 40.6804C32.1045 40.4195 32.2392 40.2512 32.4495 40.2512C32.5253 40.2512 32.6347 40.1923 32.6936 40.125C32.7525 40.0577 32.9208 39.9988 33.0639 39.9988C33.2154 39.9988 33.4089 39.9398 33.5015 39.8725C33.5941 39.7968 33.8634 39.7463 34.1663 39.7463C34.444 39.7463 34.7638 39.6874 34.8816 39.6201C35.0247 39.5359 35.3866 39.5022 36.0598 39.4938C36.59 39.4938 37.482 39.4349 38.0375 39.3676C39.4176 39.1993 42.7417 39.1993 43.4234 39.3676C43.7011 39.4349 44.2734 39.4938 44.6857 39.4938C45.2159 39.4938 45.4936 39.5359 45.603 39.6201C45.704 39.6958 45.9565 39.7463 46.2089 39.7463C46.5876 39.7463 46.6802 39.7126 46.8233 39.5275C47 39.3003 47 39.2834 47 30.0348C47 21.838 46.9832 20.744 46.8738 20.5841C46.7055 20.3485 46.049 20.054 45.6872 20.054C45.258 20.054 45.1486 19.8267 45.1486 18.9179C45.1402 17.5882 44.9298 17.4199 43.0447 17.159C41.8665 16.9991 40.8314 16.9655 39.0052 17.0328ZM22.5697 18.4129C22.7296 18.4803 23.0662 18.5392 23.3019 18.5392C23.5375 18.5476 23.8236 18.5981 23.9414 18.6654C24.0593 18.7327 24.2865 18.7916 24.4464 18.7916C24.6063 18.7916 24.8167 18.8505 24.9008 18.9179C24.9934 18.9852 25.2038 19.0441 25.3805 19.0441C25.5488 19.0441 25.734 19.103 25.7929 19.1703C25.8518 19.2376 25.9864 19.2966 26.0874 19.2966C26.1884 19.2966 26.323 19.3555 26.3819 19.4228C26.4409 19.4901 26.5923 19.549 26.7186 19.549C26.8448 19.549 26.9963 19.6079 27.0552 19.6753C27.1141 19.7426 27.2487 19.8015 27.3497 19.8015C27.4507 19.8015 27.5854 19.8604 27.6443 19.9277C27.7032 19.995 27.8042 20.054 27.8631 20.054C27.9977 20.054 28.9739 20.5421 29.1843 20.7188C29.319 20.8282 29.3274 21.3584 29.3274 29.6645C29.3274 38.4419 29.3274 38.484 29.1591 38.484C29.0665 38.484 28.8309 38.3661 28.6373 38.2315C28.4522 38.0968 28.2249 37.979 28.1492 37.979C28.0651 37.979 27.9557 37.9201 27.8967 37.8528C27.8378 37.7855 27.72 37.7266 27.6443 37.7266C27.5601 37.7266 27.3834 37.6761 27.2487 37.6087C26.8111 37.3899 26.3735 37.2216 26.2557 37.2216C26.1884 37.2216 26.0117 37.1711 25.8602 37.1038C25.33 36.8766 23.9583 36.5568 22.6034 36.338C21.4673 36.1613 18.0506 36.1613 17.3268 36.3464C17.0323 36.4137 16.6704 36.4642 16.5189 36.4474L16.2412 36.4222L16.1992 35.7489C16.1739 35.3786 16.1655 31.356 16.1823 26.8032C16.1992 19.0525 16.216 18.5392 16.3506 18.5392C16.4264 18.5392 16.6452 18.4803 16.8303 18.4129C17.3353 18.2362 22.1321 18.2362 22.5697 18.4129ZM43.0447 18.4129C43.1625 18.4803 43.3561 18.5307 43.4823 18.5392C43.6506 18.5392 43.7264 18.5897 43.76 18.7243C43.7853 18.8337 43.7937 22.8563 43.7853 27.67L43.76 36.4222L43.4234 36.4137C43.2383 36.4053 42.8259 36.3548 42.5061 36.2959C41.816 36.1781 37.7177 36.2286 37.1959 36.3632C37.0108 36.4137 36.6321 36.4979 36.3544 36.5484C35.4118 36.7167 35.092 36.7924 34.1663 37.0786C33.1733 37.3815 31.81 37.937 31.5912 38.1221C31.5238 38.181 31.3976 38.2315 31.3219 38.2315C31.2461 38.2315 31.1536 38.2904 31.1115 38.3661C31.0694 38.4419 30.96 38.484 30.8338 38.4671L30.6318 38.4419L30.6065 29.6982L30.5897 20.946L30.7749 20.7524C30.8758 20.643 31.0021 20.5589 31.061 20.5589C31.1115 20.5589 31.204 20.5 31.263 20.4327C31.3219 20.3653 31.4397 20.3064 31.5238 20.3064C31.5996 20.3064 31.7258 20.2475 31.8016 20.1802C31.8689 20.1129 31.9783 20.054 32.0372 20.054C32.1045 20.054 32.2307 19.995 32.3233 19.9277C32.4075 19.8604 32.5674 19.8015 32.6599 19.8015C32.7609 19.8015 32.8872 19.7426 32.9461 19.6753C33.005 19.6079 33.1144 19.549 33.1901 19.549C33.2743 19.549 33.4089 19.4901 33.5015 19.4228C33.5856 19.3555 33.754 19.2966 33.8718 19.2966C33.9896 19.2966 34.1579 19.2376 34.2421 19.1703C34.3346 19.103 34.5114 19.0441 34.6292 19.0441C34.747 19.0441 34.9237 18.9852 35.0163 18.9179C35.1004 18.8505 35.3108 18.7916 35.4707 18.7916C35.639 18.7916 35.8494 18.7411 35.942 18.6738C36.0346 18.6065 36.3712 18.5392 36.691 18.5139C37.0192 18.4971 37.4147 18.4382 37.5746 18.3877C37.7429 18.3372 38.9295 18.3035 40.3517 18.2951C42.3546 18.2951 42.8764 18.3119 43.0447 18.4129Z" fill="white"/>
</svg>
