<svg width="31" height="26" viewBox="0 0 31 26" fill="none" xmlns="http://www.w3.org/2000/svg">
<path d="M29.5886 14.1203C29.7557 14.0503 29.8985 13.9327 29.9994 13.7823C30.1003 13.6319 30.1548 13.4551 30.1561 13.274C30.1575 13.0929 30.1057 12.9153 30.0071 12.7634C29.9086 12.6114 29.7676 12.4917 29.6016 12.4191L3.03784 0.794708L3.03654 0.793389L2.21222 0.431151C2.05602 0.362616 1.88391 0.338591 1.71491 0.361728C1.54591 0.384866 1.3866 0.454267 1.25457 0.562264C1.12253 0.670261 1.02292 0.812653 0.966732 0.973709C0.910544 1.13477 0.899967 1.30822 0.93617 1.47491L1.12578 2.35316L1.12444 2.35708L3.42067 13.0703L0.961477 23.7473L0.961438 23.7526L0.75847 24.6278C0.720334 24.7938 0.728722 24.967 0.782709 25.1285C0.836696 25.29 0.934189 25.4334 1.06446 25.543C1.19472 25.6527 1.35272 25.7242 1.52104 25.7499C1.68937 25.7755 1.8615 25.7542 2.01849 25.6883L29.5886 14.1203ZM24.7162 14.1578L5.10301 14.0084L5.26948 13.2859C5.30011 13.1534 5.30116 13.0158 5.27256 12.8829L5.11711 12.158L24.7303 12.3074L26.8811 13.249L24.7162 14.1578Z" fill="#FFFAEA"/>
</svg>
